inDegrees=yes
name=ik_lifting_orientations
DataType=double
version=3
OpenSimVersion=4.5-2024-01-10-34fd6af
endheader
time	pelvis_tilt	pelvis_list	pelvis_rotation	pelvis_tx	pelvis_ty	pelvis_tz	hip_flexion_r	hip_adduction_r	hip_rotation_r	knee_angle_r	knee_angle_r_beta	ankle_angle_r	subtalar_angle_r	mtp_angle_r	hip_flexion_l	hip_adduction_l	hip_rotation_l	knee_angle_l	knee_angle_l_beta	ankle_angle_l	subtalar_angle_l	mtp_angle_l	lumbar_extension	lumbar_bending	lumbar_rotation	arm_flex_r	arm_add_r	arm_rot_r	elbow_flex_r	pro_sup_r	wrist_flex_r	wrist_dev_r	arm_flex_l	arm_add_l	arm_rot_l	elbow_flex_l	pro_sup_l	wrist_flex_l	wrist_dev_l
0.02	-0.008922953770832621	-0.02153415451325183	-90.00368116455215	0	0.9399999998679526	0	44.99032510462924	-11.65891933567484	0	59.99596541282098	1.047127134366365	-5.804286473785758	0	0	44.99032510462924	-11.65891933567484	0	59.99596541282098	1.047127134366365	-5.804286473785758	0	0	-0.0389817311962475	0.01221672080908535	0.02677330341384831	-0.4653440095728558	-0.1240487427394558	-0.04095811658291248	1.006711236182383	2.549690786653737	0	0	0	-10.29457151059393	0	87.50082065988575	2.549690786653737	0	0
0.03	-0.004662167202071489	-0.0002450275341233015	-89.99987167380525	0	0.9399999998679526	0	44.9905414422849	-11.54215856531337	0	59.99603912531783	1.047128420892135	-5.733580514140301	0	0	44.9905414422849	-11.54215856531337	0	59.99603912531783	1.047128420892135	-5.733580514140301	0	0	-0.0006738371799061834	0.001875065263598693	0.001966339438837326	-0.237702322609595	-0.04201501843473529	0.02187360315270773	0.4995427495243466	2.509489857940132	0	0	0	-10.3496247928128	0	87.54022139255562	2.509489857940132	0	0
0.04	-0.0001756963407517513	0.0007340271584225594	-89.99976616195985	0	0.9399999998679526	0	44.99094730103176	-11.33718703932616	0	59.99617825446716	1.047130849153876	-5.612533299003216	0	0	44.99094730103176	-11.33718703932616	0	59.99617825446716	1.047130849153876	-5.612533299003216	0	0	-0.0006066995761163018	1.444641622958156e-05	-2.913909604009777e-05	-0.1895150754158821	-0.01670233667523099	0.01164728688860113	0.4649814329960064	2.433409082496096	0	0	0	-10.45437090663769	0	87.61478791145929	2.433409082496096	0	0
0.05	0.0008153999121905908	0.003313391599950938	-89.9992435930358	0	0.9399999998679526	0	44.99110562119807	-11.26631364002419	0	59.99623317160393	1.047131807638729	-5.57246217397142	0	0	44.99110562119807	-11.26631364002419	0	59.99623317160393	1.047131807638729	-5.57246217397142	0	0	0.007440403509306986	0.001482903597106646	-0.05911924715724119	-0.1992532771973431	-0.04916178958788522	0.08241309237565322	0.4727736268994087	2.40323685916354	0	0	0	-10.49633587413119	0	87.64435969896756	2.40323685916354	0	0
0.06	-0.003587932668505757	-0.01356343781172824	-90.06474735937279	0	0.9399999998679526	0	44.99133762370158	-11.16606090502145	0	59.99631392153774	1.047133216990944	-5.516528496472562	0	0	44.99133762370158	-11.16606090502145	0	59.99631392153774	1.047133216990944	-5.516528496472562	0	0	-0.01361985633042378	-0.006629846562016191	-0.0001457454009348427	-0.2418003340993569	-0.07517898582663249	0.1210117950375519	0.597427786520673	2.358811439446388	0	0	0	-10.55830618598587	0	87.68790107639947	2.358811439446388	0	0
0.07000000000000001	-0.007567858514539215	-0.002520318066916997	-90.06478312199245	0	0.9399999998679526	0	44.99151896086887	-11.08955372251385	0	59.99637719000977	1.047134321234094	-5.474226284123698	0	0	44.99151896086887	-11.08955372251385	0	59.99637719000977	1.047134321234094	-5.474226284123698	0	0	-0.001974651667487349	0.00395914531669555	0.002544491573764601	-0.1717276253859021	-0.05646316024557939	0.1411842439739372	0.474847833251799	2.323976328639032	0	0	0	-10.60699399956686	0	87.72204300197608	2.323976328639032	0	0
0.08	0.007095249044692768	-0.002512833121122166	-90.09035662395621	0	0.9399999998679526	0	44.9916716679476	-11.03061760685648	0	59.99643094008746	1.047135259349923	-5.442644567595112	0	0	44.9916716679476	-11.03061760685648	0	59.99643094008746	1.047135259349923	-5.442644567595112	0	0	0.001094147245363691	-0.002990684792808014	0.02848391135902496	-0.1510872154600168	-0.06447196977612427	0.1542640276897449	0.4599169260606526	2.294271601331973	0	0	0	-10.64883391945645	0	87.7511566947511	2.294271601331973	0	0
